<?xml version="1.0" standalone="no"?>
<!DOCTYPE svg PUBLIC "-//W3C//DTD SVG 20010904//EN"
 "http://www.w3.org/TR/2001/REC-SVG-20010904/DTD/svg10.dtd">
<svg version="1.0" xmlns="http://www.w3.org/2000/svg"
 width="32.000000pt" height="32.000000pt" viewBox="0 0 32.000000 32.000000"
 preserveAspectRatio="xMidYMid meet">
<metadata>
Created by potrace 1.16, written by Peter Selinger 2001-2019
</metadata>
<g transform="translate(0.000000,32.000000) scale(0.100000,-0.100000)"
fill="#000000" stroke="none">
<path d="M90 297 c-23 -24 -23 -24 -43 -4 -13 13 -22 16 -29 9 -16 -16 -2 -42
22 -42 11 0 20 -4 20 -10 0 -5 -13 -10 -30 -10 -23 0 -30 -4 -30 -20 0 -16 7
-20 30 -20 36 0 40 -15 5 -24 -16 -4 -25 -13 -25 -26 0 -11 4 -20 9 -20 21 0
41 13 41 27 0 10 8 5 22 -13 16 -20 22 -40 21 -67 -2 -30 3 -44 20 -58 28 -23
46 -23 74 0 17 14 22 28 20 58 -1 27 5 47 21 67 14 18 22 23 22 13 0 -14 20
-27 41 -27 5 0 9 9 9 20 0 13 -9 22 -25 26 -35 9 -31 24 5 24 23 0 30 4 30 20
0 16 -7 20 -30 20 -16 0 -30 5 -30 10 0 6 9 10 20 10 24 0 38 26 22 42 -7 7
-16 4 -29 -9 -20 -20 -20 -20 -43 4 -17 18 -33 23 -70 23 -37 0 -53 -5 -70
-23z m131 -16 c39 -39 38 -76 -3 -129 -18 -23 -36 -42 -40 -42 -11 0 -10 24 2
36 7 7 2 11 -19 11 -25 0 -28 -3 -18 -18 19 -30 -1 -34 -28 -5 -49 53 -57 88
-28 137 29 48 91 53 134 10z"/>
</g>
</svg>
